<svg width="107" height="30" viewBox="0 0 107 30" fill="none" xmlns="http://www.w3.org/2000/svg">
<path d="M39.9814 19.3097C39.5445 19.3097 39.1075 19.3097 38.6758 19.3097C38.2389 19.3097 37.8125 19.3097 37.3914 19.3097C37.3914 17.7106 37.3914 16.1115 37.3914 14.5123C37.3914 12.9132 37.3914 11.314 37.3914 9.7149C38.1178 9.7149 38.8548 9.7149 39.6024 9.7149C40.3604 9.7149 41.1027 9.7149 41.8344 9.7149C42.5346 9.7149 43.1294 9.84983 43.6243 10.1147C44.1139 10.3695 44.5087 10.7094 44.8035 11.1341C45.0983 11.5639 45.2931 12.0287 45.3931 12.5334C45.4878 13.0431 45.4878 13.5478 45.3931 14.0526C45.2931 14.5623 45.0983 15.027 44.8035 15.4518C44.5087 15.8816 44.1139 16.2214 43.6243 16.4713C43.1294 16.7261 42.5346 16.8511 41.8344 16.8511H39.9814V19.3097ZM41.8344 14.6522C42.1134 14.6522 42.3398 14.5623 42.5083 14.3724C42.6872 14.1875 42.8083 13.9626 42.8662 13.6928C42.9347 13.4129 42.9399 13.1431 42.8873 12.8732C42.8294 12.6083 42.7083 12.3835 42.5293 12.1936C42.3608 12.0087 42.1292 11.9137 41.8344 11.9137C41.5238 11.9037 41.208 11.9037 40.8868 11.9137C40.5763 11.9137 40.2762 11.9137 39.9814 11.9137C39.9814 12.1686 39.9814 12.4634 39.9814 12.7932C39.9814 13.1131 39.9814 13.4429 39.9814 13.7727C39.9814 14.0925 39.9814 14.3874 39.9814 14.6522H41.8344Z" fill="#00ACC1"/>
<path d="M51.0967 17.2309C51.3494 17.2309 51.5863 17.1909 51.8127 17.1109C52.0496 17.021 52.2444 16.886 52.4023 16.7111C52.555 16.5412 52.6339 16.3263 52.6339 16.0715V9.7149C53.0393 9.7149 53.4446 9.7149 53.8552 9.7149C54.2764 9.7149 54.687 9.7149 55.0976 9.7149V16.1115C55.0976 16.8211 54.9081 17.4257 54.5291 17.9305C54.15 18.4252 53.6499 18.805 53.034 19.0699C52.4286 19.3197 51.7811 19.4497 51.0967 19.4497C50.5756 19.4497 50.0755 19.3747 49.6017 19.2298C49.1226 19.0699 48.6962 18.85 48.3172 18.5701C47.9382 18.2903 47.6328 17.9455 47.4117 17.5307C47.1854 17.1209 47.0748 16.6462 47.0748 16.1115V9.7149C47.4802 9.7149 47.8961 9.7149 48.3172 9.7149C48.7383 9.7149 49.149 9.7149 49.5596 9.7149V16.0715C49.5596 16.3263 49.6333 16.5412 49.7912 16.7111C49.9439 16.886 50.1334 17.021 50.3597 17.1109C50.5966 17.1909 50.8441 17.2309 51.0967 17.2309Z" fill="#00ACC1"/>
<path d="M59.9627 9.7149C59.9627 10.4245 59.9627 11.0092 59.9627 11.474C59.9627 11.9437 59.9627 12.3285 59.9627 12.6333C59.9627 12.9432 59.9627 13.203 59.9627 13.4129C59.9627 13.6278 59.9627 13.8327 59.9627 14.0326C59.9627 14.2325 59.9627 14.4623 59.9627 14.7122C59.9627 14.9671 59.9627 15.2869 59.9627 15.6717C59.9627 16.0465 59.9627 16.5262 59.9627 17.1109H63.6266C63.6266 17.5107 63.6266 17.8805 63.6266 18.2103C63.6266 18.5302 63.6266 18.9 63.6266 19.3097C62.5843 19.3097 61.5419 19.3097 60.4891 19.3097C59.4362 19.3097 58.3886 19.3097 57.3516 19.3097V9.7149C57.7832 9.7149 58.2149 9.7149 58.636 9.7149C59.0677 9.7149 59.5099 9.7149 59.9627 9.7149Z" fill="#00ACC1"/>
<path d="M66.9589 16.3715C66.9589 16.6263 67.0642 16.8262 67.2748 16.9711C67.4854 17.1211 67.7486 17.221 68.075 17.271C68.3961 17.3259 68.7119 17.3309 69.0225 17.291C69.3279 17.251 69.5911 17.166 69.8016 17.0311C70.0122 16.9012 70.1175 16.7213 70.1175 16.4914C70.1175 16.2665 70.0333 16.0916 69.8648 15.9717C69.6964 15.8517 69.47 15.7668 69.191 15.7118C68.9225 15.6618 68.6224 15.6269 68.2855 15.6119C67.538 15.5619 66.8958 15.432 66.3483 15.2321C65.8008 15.0322 65.3691 14.7273 65.0638 14.3126C64.769 13.9028 64.6111 13.3481 64.6005 12.6535C64.6005 12.0688 64.7321 11.569 65.0006 11.1543C65.2796 10.7295 65.6429 10.3897 66.0956 10.1348C66.5588 9.86996 67.0642 9.69506 67.6117 9.6151C68.1697 9.53514 68.7277 9.53514 69.2752 9.6151C69.8332 9.69506 70.3491 9.86996 70.8124 10.1348C71.2756 10.3897 71.6389 10.7295 71.9074 11.1543C72.1864 11.569 72.3285 12.0688 72.3285 12.6535C71.8652 12.6535 71.4494 12.6535 71.0861 12.6535C70.7176 12.6535 70.3123 12.6535 69.8648 12.6535C69.8648 12.4036 69.7701 12.2037 69.5911 12.0538C69.4068 11.9089 69.1752 11.8139 68.8962 11.7739C68.6277 11.724 68.354 11.724 68.075 11.7739C67.8065 11.8289 67.5749 11.9289 67.3801 12.0738C67.18 12.2237 67.0747 12.4086 67.0642 12.6335C67.0484 12.8733 67.1116 13.0632 67.2537 13.1932C67.3906 13.3281 67.5906 13.4231 67.8433 13.473C68.096 13.528 68.3698 13.573 68.6646 13.6129C69.1699 13.6679 69.6542 13.7429 70.1175 13.8328C70.5913 13.9128 71.023 14.0477 71.402 14.2326C71.781 14.4225 72.0811 14.6924 72.3074 15.0522C72.5285 15.412 72.6444 15.8917 72.6444 16.4914C72.6444 17.0811 72.4864 17.5808 72.1811 17.9906C71.8863 18.3904 71.4915 18.7202 71.0019 18.9701C70.5229 19.2249 69.9912 19.3898 69.4016 19.4698C68.812 19.5497 68.2224 19.5398 67.6328 19.4498C67.0537 19.3698 66.5273 19.2049 66.0535 18.9501C65.5744 18.7002 65.1901 18.3604 64.8953 17.9306C64.6005 17.4909 64.4531 16.9711 64.4531 16.3715C64.8848 16.3715 65.3007 16.3715 65.6955 16.3715C66.1008 16.3715 66.522 16.3715 66.9589 16.3715Z" fill="#00ACC1"/>
<path d="M80.6109 9.7149C80.6109 10.0747 80.6109 10.4345 80.6109 10.7943C80.6109 11.1541 80.6109 11.5289 80.6109 11.9137C80.1055 11.9137 79.6633 11.9137 79.2843 11.9137C78.9157 11.9137 78.5472 11.9137 78.1682 11.9137C77.7997 11.9137 77.368 11.9137 76.8627 11.9137V13.253H80.295C80.295 13.6278 80.295 13.9926 80.295 14.3524C80.295 14.7122 80.295 15.082 80.295 15.4518H76.8627C76.8627 15.7317 76.8627 16.0115 76.8627 16.2914C76.8627 16.5612 76.8627 16.8411 76.8627 17.1309C77.368 17.1309 77.8102 17.1309 78.1893 17.1309C78.5788 17.1309 78.9737 17.1309 79.3685 17.1309C79.7738 17.1309 80.2318 17.1309 80.7372 17.1309C80.7372 17.4907 80.7372 17.8605 80.7372 18.2303C80.7372 18.5901 80.7372 18.9499 80.7372 19.3097C79.9476 19.3097 79.2105 19.3097 78.5262 19.3097C77.8366 19.3097 77.1575 19.3097 76.4836 19.3097C75.8098 19.3097 75.0781 19.3097 74.2937 19.3097C74.2937 17.7006 74.2937 16.0915 74.2937 14.4923C74.2937 12.8932 74.2937 11.304 74.2937 9.7149C75.0781 9.7149 75.7993 9.7149 76.4626 9.7149C77.1206 9.7149 77.7787 9.7149 78.442 9.7149C79.1 9.7149 79.8212 9.7149 80.6109 9.7149Z" fill="#00ACC1"/>
<path d="M96.478 19.3099H93.8459L93.5932 18.8701C92.972 19.1799 92.314 19.3598 91.6138 19.4298C90.9242 19.5098 90.2346 19.4598 89.5502 19.2899C88.8764 19.12 88.2552 18.8301 87.6972 18.4304C87.1497 18.0206 86.7075 17.4859 86.3706 16.8312C86.0337 16.1816 85.8652 15.412 85.8652 14.5325C85.8652 13.6929 86.0126 12.9683 86.3074 12.3536C86.6022 11.729 86.9918 11.2092 87.4866 10.7945C87.9762 10.3697 88.529 10.0549 89.1502 9.85497C89.7661 9.65508 90.3978 9.55513 91.0453 9.55513C91.7033 9.55513 92.3403 9.65508 92.9615 9.85497C93.5774 10.0549 94.1302 10.3697 94.625 10.7945C95.1146 11.2092 95.5094 11.729 95.8042 12.3536C96.099 12.9683 96.2464 13.6929 96.2464 14.5325C96.2464 15.0921 96.1675 15.6119 96.0148 16.0916C95.8727 16.5614 95.6779 16.9861 95.4252 17.3709L96.478 18.99V19.3099ZM88.5184 14.5325C88.5184 15.1071 88.6343 15.5869 88.8764 15.9717C89.1291 16.3615 89.445 16.6513 89.824 16.8512C90.2135 17.0411 90.6242 17.1311 91.0453 17.1311C91.477 17.1311 91.8876 17.0411 92.2666 16.8512C92.6562 16.6513 92.972 16.3615 93.2142 15.9717C93.4669 15.5869 93.5932 15.1071 93.5932 14.5325C93.5932 13.9478 93.4669 13.468 93.2142 13.0932C92.972 12.7084 92.6562 12.4236 92.2666 12.2337C91.8876 12.0338 91.477 11.9339 91.0453 11.9339C90.6242 11.9339 90.2135 12.0338 89.824 12.2337C89.445 12.4236 89.1291 12.7084 88.8764 13.0932C88.6343 13.468 88.5184 13.9478 88.5184 14.5325Z" fill="#FFB400"/>
<path d="M104.42 19.3098L103.83 18.1104H99.8505L99.2609 19.3098H96.734V18.95L101.282 9.59504H102.398L106.947 18.95V19.3098H104.42ZM102.988 16.0116L101.83 13.4729L100.693 16.0116H102.988Z" fill="#FFB400"/>
<path d="M15.6159 23.2296C10.7369 23.2296 6.765 19.4592 6.765 14.8277C6.765 10.1962 10.7369 6.4257 15.6159 6.4257C15.9036 6.4257 16.1393 6.2019 16.1393 5.93259V0.493119C16.1393 0.2238 15.9036 0 15.6159 0H12.8747C12.6349 0 12.4232 0.151729 12.3672 0.375529L11.624 3.21285C10.9886 3.4101 10.3733 3.64907 9.78988 3.92977L7.14861 2.42766C6.94881 2.31007 6.68109 2.34421 6.51326 2.49973L2.63727 6.18294C2.46945 6.34225 2.43348 6.5926 2.55736 6.78606L4.13972 9.29337C3.84403 9.84718 3.58829 10.4275 3.3845 11.0307L0.395591 11.74C0.163831 11.7931 0 11.9903 0 12.2179V17.4298C0 17.6574 0.163831 17.8547 0.395591 17.9078L3.3845 18.6133C3.59229 19.2164 3.84403 19.8006 4.13972 20.3544L2.55736 22.8617C2.43348 23.0551 2.46945 23.3055 2.63727 23.4648L6.51326 27.1442C6.68109 27.3035 6.94881 27.3377 7.14861 27.2201L9.78988 25.718C10.3733 25.9987 10.9886 26.2414 11.624 26.4349L12.3672 29.2722C12.4232 29.4922 12.6349 29.6477 12.8747 29.6477H15.6159C15.9036 29.6477 16.1393 29.424 16.1393 29.1546V23.7152C16.1393 23.4421 15.9036 23.222 15.6159 23.222V23.2296ZM15.0964 28.6691H13.2783L12.559 25.9342C12.5151 25.7673 12.3792 25.6345 12.2074 25.5776C11.4402 25.3614 10.7009 25.0731 10.0176 24.7242C9.85781 24.6407 9.66201 24.6445 9.50217 24.7355L6.9648 26.1808L3.65622 23.0438L5.18264 20.6313C5.27454 20.4833 5.28254 20.2937 5.19063 20.142C4.82301 19.4933 4.51933 18.7916 4.29156 18.0671C4.23961 17.8964 4.09976 17.7712 3.91595 17.7295L1.03893 17.0467V12.6086L3.91595 11.9259C4.09577 11.8841 4.23562 11.7552 4.29156 11.5921C4.51933 10.8638 4.82301 10.162 5.19063 9.51338C5.28254 9.36165 5.27454 9.17199 5.18264 9.02405L3.65622 6.61536L6.9648 3.47458L9.50217 4.92359C9.66201 5.01084 9.85781 5.01842 10.0176 4.93118C10.7009 4.5822 11.4402 4.29392 12.2074 4.0777C12.3832 4.02839 12.5191 3.89563 12.559 3.72114L13.2783 0.990029H15.0964V5.45085C9.88578 5.70879 5.72208 9.81684 5.72208 14.8277C5.72208 19.8423 9.88578 23.9466 15.0964 24.2045V28.6691Z" fill="white"/>
<path d="M28.1144 12.8515C27.1434 12.8515 26.3362 13.4849 26.1045 14.3346H20.8219V12.3583H22.9078C23.0516 12.3583 23.1915 12.2976 23.2914 12.1952L25.1974 10.2114C25.4531 10.3176 25.7328 10.3783 26.0285 10.3783C27.1794 10.3783 28.1144 9.49446 28.1144 8.40201C28.1144 7.30957 27.1794 6.42575 26.0285 6.42575C24.8777 6.42575 23.9467 7.30957 23.9467 8.40201C23.9467 8.85341 24.1145 9.26307 24.3783 9.59308L22.676 11.3683H20.8219V10.3783C20.8219 10.109 20.5902 9.88516 20.3025 9.88516H19.2595V8.89892C19.2595 8.62581 19.0278 8.40201 18.7401 8.40201C18.4524 8.40201 18.2206 8.62581 18.2206 8.89892V9.88516H16.1388V8.89892C16.1388 8.62581 15.903 8.40201 15.6153 8.40201C15.3316 8.40201 15.0958 8.62581 15.0958 8.89892V9.88516H13.014V8.89892C13.014 8.62581 12.7782 8.40201 12.4905 8.40201C12.2068 8.40201 11.9711 8.62581 11.9711 8.89892V9.88516H10.9282C10.6445 9.88516 10.4087 10.109 10.4087 10.3783V11.3683H9.36977C9.08207 11.3683 8.84631 11.5921 8.84631 11.8614C8.84631 12.1345 9.08207 12.3583 9.36977 12.3583H10.4087V14.3346H9.36977C9.08207 14.3346 8.84631 14.5584 8.84631 14.8277C8.84631 15.1008 9.08207 15.3246 9.36977 15.3246H10.4087V17.3009H9.36977C9.08207 17.3009 8.84631 17.5209 8.84631 17.794C8.84631 18.0671 9.08207 18.2871 9.36977 18.2871H10.4087V19.2772C10.4087 19.5503 10.6445 19.7703 10.9282 19.7703H11.9711V20.7603C11.9711 21.0334 12.2068 21.2534 12.4905 21.2534C12.7782 21.2534 13.014 21.0334 13.014 20.7603V19.7703H15.0958V20.7603C15.0958 21.0334 15.3316 21.2534 15.6153 21.2534C15.903 21.2534 16.1388 21.0334 16.1388 20.7603V19.7703H18.2206V20.7603C18.2206 21.0334 18.4524 21.2534 18.7401 21.2534C19.0278 21.2534 19.2595 21.0334 19.2595 20.7603V19.7703H20.3025C20.5902 19.7703 20.8219 19.5503 20.8219 19.2772V18.2871H22.676L24.3783 20.0623C24.1145 20.3924 23.9467 20.8058 23.9467 21.2534C23.9467 22.3459 24.8777 23.2297 26.0285 23.2297C27.1794 23.2297 28.1144 22.3459 28.1144 21.2534C28.1144 20.161 27.1794 19.2772 26.0285 19.2772C25.7328 19.2772 25.4531 19.3378 25.1974 19.4441L23.2914 17.464C23.1915 17.3578 23.0516 17.3009 22.9078 17.3009H20.8219V15.3246H26.1045C26.3362 16.1743 27.1434 16.804 28.1144 16.804C29.2652 16.804 30.1962 15.9202 30.1962 14.8277C30.1962 13.7353 29.2652 12.8515 28.1144 12.8515ZM26.0285 7.41578C26.6039 7.41578 27.0715 7.85958 27.0715 8.40201C27.0715 8.94824 26.6039 9.39204 26.0285 9.39204C25.4571 9.39204 24.9896 8.94824 24.9896 8.40201C24.9896 7.85958 25.4571 7.41578 26.0285 7.41578ZM27.0715 21.2534C27.0715 21.7996 26.6039 22.2434 26.0285 22.2434C25.4571 22.2434 24.9896 21.7996 24.9896 21.2534C24.9896 20.711 25.4571 20.2672 26.0285 20.2672C26.6039 20.2672 27.0715 20.711 27.0715 21.2534ZM19.783 18.784H11.4516V10.8752H19.783V18.784ZM28.1144 15.8177C27.539 15.8177 27.0715 15.3739 27.0715 14.8277C27.0715 14.2853 27.539 13.8415 28.1144 13.8415C28.6858 13.8415 29.1533 14.2853 29.1533 14.8277C29.1533 15.3739 28.6858 15.8177 28.1144 15.8177Z" fill="white"/>
<path d="M15.6119 16.2122H14.7968L14.7168 16.0756C14.525 16.178 14.3173 16.2349 14.0935 16.2577C13.8777 16.2767 13.6659 16.2615 13.4541 16.2122C13.2384 16.1515 13.0426 16.0604 12.8628 15.9391C12.6909 15.8101 12.5511 15.6432 12.4472 15.4384C12.3393 15.2373 12.2874 14.9946 12.2874 14.7101C12.2874 14.4483 12.3353 14.2207 12.4312 14.0273C12.5271 13.8376 12.647 13.6745 12.7988 13.5418C12.9467 13.4128 13.1185 13.3142 13.3103 13.2535C13.5101 13.1928 13.7139 13.1624 13.9177 13.1624C14.1175 13.1624 14.3173 13.1928 14.5091 13.2535C14.7009 13.3142 14.8687 13.4128 15.0205 13.5418C15.1804 13.6745 15.3002 13.8376 15.3881 14.0273C15.484 14.2207 15.532 14.4483 15.532 14.7101C15.532 14.8921 15.508 15.059 15.4681 15.2108C15.4241 15.3549 15.3642 15.4839 15.2922 15.6053L15.6119 16.106V16.2122ZM13.1185 14.7101C13.1185 14.8921 13.1545 15.0439 13.2304 15.1652C13.3143 15.2866 13.4142 15.3777 13.5341 15.4384C13.6499 15.4991 13.7778 15.5294 13.9177 15.5294C14.0535 15.5294 14.1814 15.4991 14.3013 15.4384C14.4172 15.3777 14.5131 15.2866 14.589 15.1652C14.6609 15.0439 14.7009 14.8921 14.7009 14.7101C14.7009 14.528 14.6609 14.3838 14.589 14.2701C14.5131 14.1487 14.4172 14.0576 14.3013 13.9969C14.1814 13.9362 14.0535 13.9059 13.9177 13.9059C13.7778 13.9059 13.6499 13.9362 13.5341 13.9969C13.4142 14.0576 13.3143 14.1487 13.2304 14.2701C13.1545 14.3838 13.1185 14.528 13.1185 14.7101Z" fill="#FFB400"/>
<path d="M18.2109 16.2122L18.035 15.8329H16.7724L16.5965 16.2122H15.7974V16.106L17.2199 13.1624H17.5715L19.01 16.106V16.2122H18.2109ZM17.7633 15.1804L17.3957 14.3914L17.0441 15.1804H17.7633Z" fill="#FFB400"/>
</svg>
