<svg width="16" height="12" viewBox="0 0 16 12" fill="none" xmlns="http://www.w3.org/2000/svg">
<path d="M11.4214 0.191925C13.3539 0.192081 14.933 1.70876 15.0317 3.61673H15.0356V8.56302H15.0317C14.9328 10.4708 13.3538 11.9867 11.4214 11.9868H3.81104C1.81501 11.9866 0.196967 10.3686 0.196777 8.37259V3.80618C0.19704 1.8102 1.81505 0.192191 3.81104 0.191925H11.4214ZM3.81104 1.33255C2.44549 1.33282 1.33767 2.44063 1.3374 3.80618V8.37259C1.33759 9.7382 2.44544 10.845 3.81104 10.8452H11.4214C12.7231 10.8451 13.787 9.83979 13.8843 8.56302H11.0562C9.69044 8.56276 8.5835 7.45516 8.5835 6.08939C8.58365 4.72374 9.69053 3.61699 11.0562 3.61673H13.8843C13.7872 2.33971 12.7232 1.3327 11.4214 1.33255H3.81104ZM11.0562 4.75735C10.321 4.75762 9.72427 5.35417 9.72412 6.08939C9.72412 6.82473 10.3209 7.42116 11.0562 7.42142H13.894V4.75735H11.0562Z" fill="white" fill-opacity="0.56"/>
</svg>
