<svg width="15" height="16" viewBox="0 0 15 16" fill="none" xmlns="http://www.w3.org/2000/svg">
<path fill-rule="evenodd" clip-rule="evenodd" d="M14.369 10.1314C14.4309 9.52366 14.4309 8.76267 14.4309 7.80226L14.4309 5.82184C14.431 5.08677 14.4311 4.61272 14.3032 4.16407C14.2331 3.91811 14.1349 3.68104 14.0106 3.45754C13.7838 3.04987 13.4485 2.71473 12.9286 2.19507L12.8192 2.08568C12.2996 1.56581 11.9644 1.23054 11.5568 1.00372C11.3333 0.879378 11.0962 0.781179 10.8502 0.711068C10.4016 0.583183 9.92753 0.58328 9.19245 0.58343L8.29334 0.58344V0.584961C7.63728 0.588895 7.08505 0.602993 6.61904 0.653482C5.95605 0.725312 5.40548 0.87582 4.93209 1.21976C4.64924 1.42526 4.4005 1.674 4.195 1.95685C3.97597 2.25831 3.83539 2.59107 3.74362 2.96423L3.16853 3.11832C1.39113 3.59458 0.336345 5.42153 0.812597 7.19892L2.35572 12.9579C2.83197 14.7353 4.65891 15.7901 6.43631 15.3139L10.5015 14.2246C11.2779 14.0166 11.9164 13.5508 12.3496 12.944C12.5627 12.8698 12.762 12.7734 12.9501 12.6477C13.3139 12.4046 13.6263 12.0922 13.8693 11.7284C14.1732 11.2738 14.3057 10.754 14.369 10.1314ZM9.20087 1.63561L9.11511 1.63559C8.06181 1.6356 7.31203 1.6367 6.73237 1.69951C6.1589 1.76164 5.81467 1.87905 5.55053 2.07096C5.357 2.21157 5.18681 2.38176 5.0462 2.57529C4.85429 2.83943 4.73688 3.18366 4.67475 3.75713C4.61155 4.34044 4.61083 5.09603 4.61083 6.15982V7.7731C4.61083 8.76918 4.61146 9.47665 4.66723 10.0249C4.72211 10.5643 4.82598 10.8909 4.99502 11.1439C5.16134 11.3928 5.37505 11.6065 5.62397 11.7729C5.87696 11.9419 6.20357 12.0458 6.743 12.1006C7.29122 12.1564 7.99868 12.157 8.99477 12.157C9.99085 12.157 10.6983 12.1564 11.2465 12.1006C11.786 12.0458 12.1126 11.9419 12.3656 11.7729C12.6145 11.6065 12.8282 11.3928 12.9945 11.1439C13.1636 10.8909 13.2674 10.5643 13.3223 10.0249C13.3781 9.47665 13.3787 8.76918 13.3787 7.7731V6.01953C13.3787 5.674 13.3776 5.46777 13.3577 5.31996C13.3486 5.25223 13.3379 5.21831 13.3316 5.20304C13.3301 5.1995 13.329 5.19717 13.3283 5.19582L13.3273 5.19411L13.3256 5.19314C13.3243 5.19243 13.3219 5.1913 13.3184 5.18984C13.3031 5.18356 13.2692 5.17283 13.2015 5.16373C13.0537 5.14386 12.8474 5.14274 12.5019 5.14274L11.7691 5.14274C11.4655 5.14278 11.1872 5.14281 10.9607 5.11237C10.7114 5.07884 10.4478 4.99997 10.2311 4.78321C10.0143 4.56645 9.93545 4.30291 9.90193 4.05356C9.87148 3.82713 9.87152 3.54878 9.87155 3.24519L9.87156 2.37209C9.87156 2.09735 9.87083 1.93356 9.85787 1.81392C9.85024 1.74354 9.84055 1.7147 9.83694 1.70635C9.82673 1.69259 9.81455 1.68042 9.80079 1.6702C9.79244 1.66659 9.7636 1.6569 9.69322 1.64927C9.58346 1.63738 9.43653 1.63579 9.20087 1.63561ZM10.2493 13.2028C9.88163 13.2092 9.47475 13.2092 9.02393 13.2092H8.96561C8.0052 13.2092 7.24421 13.2092 6.63652 13.1474C6.0139 13.084 5.49411 12.9515 5.03943 12.6477C4.67563 12.4046 4.36327 12.0922 4.12019 11.7284C3.81638 11.2738 3.68383 10.754 3.62049 10.1313C3.55867 9.52366 3.55867 8.76268 3.55868 7.80228V6.12861C3.55868 5.32815 3.55867 4.65743 3.59197 4.09413L3.44085 4.13462C2.22473 4.46048 1.50303 5.71049 1.82889 6.92661L3.37201 12.6856C3.69787 13.9017 4.94788 14.6234 6.164 14.2976L10.2292 13.2083C10.2359 13.2065 10.2426 13.2047 10.2493 13.2028ZM13.0911 3.96907C13.1156 4.01304 13.1386 4.05778 13.1601 4.1032C12.9726 4.09054 12.76 4.09056 12.5333 4.09059L11.8005 4.09059C11.455 4.09059 11.2487 4.08947 11.1009 4.0696C11.0332 4.0605 10.9993 4.04977 10.984 4.04348C10.9805 4.04203 10.9781 4.04089 10.9768 4.04019L10.9751 4.03922L10.9741 4.03751C10.9734 4.03616 10.9723 4.03383 10.9708 4.03029C10.9645 4.01502 10.9538 3.9811 10.9447 3.91337C10.9248 3.76556 10.9237 3.55933 10.9237 3.2138L10.9237 2.34733C10.9237 2.17069 10.9237 2.00466 10.916 1.85655C10.9597 1.87736 11.0028 1.89957 11.0452 1.92315C11.3087 2.06971 11.5367 2.29115 12.1299 2.88436C12.7231 3.47757 12.9446 3.70564 13.0911 3.96907Z" fill="white" fill-opacity="0.56"/>
</svg>
