<svg width="15" height="16" viewBox="0 0 15 16" fill="none" xmlns="http://www.w3.org/2000/svg">
<path fill-rule="evenodd" clip-rule="evenodd" d="M14.369 10.3633C14.4309 9.75558 14.4309 8.99459 14.4309 8.03418L14.4309 6.05376C14.431 5.31869 14.4311 4.84464 14.3032 4.39599C14.2331 4.15003 14.1349 3.91295 14.0106 3.68946C13.7838 3.28179 13.4485 2.94665 12.9286 2.42699L12.8192 2.3176C12.2996 1.79772 11.9644 1.46246 11.5568 1.23564C11.3333 1.1113 11.0962 1.0131 10.8502 0.942987C10.4016 0.815102 9.92753 0.815198 9.19245 0.815348L8.29334 0.815359V0.816879C7.63728 0.820813 7.08505 0.834911 6.61904 0.8854C5.95605 0.95723 5.40548 1.10774 4.93209 1.45168C4.64924 1.65718 4.4005 1.90592 4.195 2.18877C3.97597 2.49023 3.83539 2.82299 3.74362 3.19615L3.16853 3.35024C1.39113 3.8265 0.336345 5.65344 0.812597 7.43084L2.35572 13.1898C2.83197 14.9672 4.65891 16.022 6.43631 15.5458L10.5015 14.4565C11.2779 14.2485 11.9164 13.7827 12.3496 13.176C12.5627 13.1017 12.762 13.0053 12.9501 12.8796C13.3139 12.6365 13.6263 12.3242 13.8693 11.9604C14.1732 11.5057 14.3057 10.9859 14.369 10.3633ZM9.20087 1.86752L9.11511 1.8675C8.06181 1.86752 7.31203 1.86862 6.73237 1.93142C6.1589 1.99356 5.81467 2.11097 5.55053 2.30288C5.357 2.44349 5.18681 2.61368 5.0462 2.80721C4.85429 3.07135 4.73688 3.41558 4.67475 3.98905C4.61155 4.57236 4.61083 5.32794 4.61083 6.39173V8.00502C4.61083 9.0011 4.61146 9.70856 4.66723 10.2568C4.72211 10.7962 4.82598 11.1228 4.99502 11.3758C5.16134 11.6247 5.37505 11.8384 5.62397 12.0048C5.87696 12.1738 6.20357 12.2777 6.743 12.3326C7.29122 12.3883 7.99868 12.389 8.99477 12.389C9.99085 12.389 10.6983 12.3883 11.2465 12.3326C11.786 12.2777 12.1126 12.1738 12.3656 12.0048C12.6145 11.8384 12.8282 11.6247 12.9945 11.3758C13.1636 11.1228 13.2674 10.7962 13.3223 10.2568C13.3781 9.70856 13.3787 9.0011 13.3787 8.00502V6.25144C13.3787 5.90591 13.3776 5.69969 13.3577 5.55188C13.3486 5.48415 13.3379 5.45023 13.3316 5.43495C13.3301 5.43142 13.329 5.42909 13.3283 5.42773L13.3273 5.42603L13.3256 5.42506C13.3243 5.42435 13.3219 5.42322 13.3184 5.42176C13.3031 5.41548 13.2692 5.40475 13.2015 5.39565C13.0537 5.37577 12.8474 5.37466 12.5019 5.37466L11.7691 5.37466C11.4655 5.37469 11.1872 5.37473 10.9607 5.34428C10.7114 5.31076 10.4478 5.23189 10.2311 5.01513C10.0143 4.79837 9.93545 4.53482 9.90193 4.28548C9.87148 4.05905 9.87152 3.7807 9.87155 3.47711L9.87156 2.60401C9.87156 2.32927 9.87083 2.16548 9.85787 2.04583C9.85024 1.97546 9.84055 1.94662 9.83694 1.93826C9.82673 1.92451 9.81455 1.91233 9.80079 1.90211C9.79244 1.89851 9.7636 1.88881 9.69322 1.88119C9.58346 1.8693 9.43653 1.86771 9.20087 1.86752ZM10.2493 13.4347C9.88163 13.4411 9.47475 13.4411 9.02393 13.4411H8.96561C8.0052 13.4411 7.24421 13.4411 6.63652 13.3793C6.0139 13.316 5.49411 13.1834 5.03943 12.8796C4.67563 12.6365 4.36327 12.3242 4.12019 11.9604C3.81638 11.5057 3.68383 10.9859 3.62049 10.3633C3.55867 9.75558 3.55867 8.9946 3.55868 8.0342V6.36052C3.55868 5.56006 3.55867 4.88935 3.59197 4.32604L3.44085 4.36654C2.22473 4.6924 1.50303 5.94241 1.82889 7.15853L3.37201 12.9175C3.69787 14.1336 4.94788 14.8553 6.164 14.5295L10.2292 13.4402C10.2359 13.4384 10.2426 13.4366 10.2493 13.4347ZM13.0911 4.20099C13.1156 4.24496 13.1386 4.28969 13.1601 4.33512C12.9726 4.32246 12.76 4.32248 12.5333 4.32251L11.8005 4.32251C11.455 4.32251 11.2487 4.32139 11.1009 4.30152C11.0332 4.29241 10.9993 4.28169 10.984 4.2754C10.9805 4.27395 10.9781 4.27281 10.9768 4.2721L10.9751 4.27114L10.9741 4.26943C10.9734 4.26808 10.9723 4.26575 10.9708 4.26221C10.9645 4.24694 10.9538 4.21301 10.9447 4.14528C10.9248 3.99748 10.9237 3.79125 10.9237 3.44572L10.9237 2.57925C10.9237 2.40261 10.9237 2.23658 10.916 2.08847C10.9597 2.10928 11.0028 2.13149 11.0452 2.15507C11.3087 2.30163 11.5367 2.52307 12.1299 3.11628C12.7231 3.70949 12.9446 3.93756 13.0911 4.20099Z" fill="white" fill-opacity="0.56"/>
</svg>
